<?xml version="1.0" encoding="UTF-8"?>
<svg id="Layer_1" data-name="Layer 1" xmlns="http://www.w3.org/2000/svg" viewBox="0 0 400 500">
  <defs>
    <style>
      .cls-1 {
        fill: #cd2034;
      }

      .cls-1, .cls-2 {
        stroke-width: 0px;
      }

      .cls-2 {
        fill: #fff;
      }
    </style>
  </defs>
  <rect class="cls-1" width="400" height="500" rx="100" ry="100"/>
  <rect class="cls-2" x="29.91" y="25" width="340.8" height="450" rx="74" ry="74"/>
  <rect class="cls-1" x="57.01" y="50" width="286.99" height="399" rx="57" ry="57"/>
  <circle class="cls-2" cx="85.5" cy="78.5" r="44.5"/>
  <circle class="cls-2" cx="85.5" cy="420.5" r="44.5"/>
  <circle class="cls-2" cx="315.5" cy="420.5" r="44.5"/>
  <circle class="cls-2" cx="315.5" cy="78.5" r="44.5"/>
  <circle class="cls-1" cx="84.5" cy="77.5" r="23.5"/>
  <circle class="cls-1" cx="85.5" cy="420.5" r="23.5"/>
  <circle class="cls-1" cx="315.5" cy="420.5" r="23.5"/>
  <circle class="cls-1" cx="315.5" cy="77.5" r="23.5"/>
  <polygon class="cls-2" points="316 250.5 257.3 259.53 310.37 286.19 251.76 276.59 293.93 318.41 241.16 291.16 268.41 343.93 226.59 301.76 236.19 360.37 209.53 307.3 200.5 366 191.47 307.3 164.81 360.37 174.41 301.76 132.59 343.93 159.84 291.16 107.07 318.41 149.24 276.59 90.63 286.19 143.7 259.53 85 250.5 143.7 241.47 90.63 214.81 149.24 224.41 107.07 182.59 159.84 209.84 132.59 157.07 174.41 199.24 164.81 140.63 191.47 193.7 200.5 135 209.53 193.7 236.19 140.63 226.59 199.24 268.41 157.07 241.16 209.84 293.93 182.59 251.76 224.41 310.37 214.81 257.3 241.47 316 250.5"/>
  <circle class="cls-1" cx="199.5" cy="250.5" r="45.5"/>
</svg>